<svg xmlns="http://www.w3.org/2000/svg" width="980" height="430" viewBox="0 0 980 430">
<rect width="100%" height="100%" fill="white"/>
<text x="70" y="30" font-family="Arial" font-size="18" font-weight="700">Observed Salinity Station-Days by Month</text>
<line x1="70" y1="360" x2="910" y2="360" stroke="#888"/>
<line x1="70" y1="70" x2="70" y2="360" stroke="#888"/>
<text x="70" y="56" font-family="Arial" font-size="11">580.0</text>
<rect x="70.0" y="210.0" width="14.8" height="150.0" fill="#52796f"/><text transform="translate(77.4,412) rotate(-35)" text-anchor="end" font-family="Arial" font-size="10">2020-01</text><rect x="90.5" y="195.5" width="14.8" height="164.5" fill="#52796f"/><rect x="111.0" y="195.0" width="14.8" height="165.0" fill="#52796f"/><rect x="131.5" y="202.5" width="14.8" height="157.5" fill="#52796f"/><text transform="translate(138.8,412) rotate(-35)" text-anchor="end" font-family="Arial" font-size="10">2020-04</text><rect x="152.0" y="202.0" width="14.8" height="158.0" fill="#52796f"/><rect x="172.4" y="201.5" width="14.8" height="158.5" fill="#52796f"/><rect x="192.9" y="360.0" width="14.8" height="0.0" fill="#52796f"/><text transform="translate(200.3,412) rotate(-35)" text-anchor="end" font-family="Arial" font-size="10">2020-07</text><rect x="213.4" y="360.0" width="14.8" height="0.0" fill="#52796f"/><rect x="233.9" y="360.0" width="14.8" height="0.0" fill="#52796f"/><rect x="254.4" y="360.0" width="14.8" height="0.0" fill="#52796f"/><text transform="translate(261.8,412) rotate(-35)" text-anchor="end" font-family="Arial" font-size="10">2020-10</text><rect x="274.9" y="360.0" width="14.8" height="0.0" fill="#52796f"/><rect x="295.4" y="360.0" width="14.8" height="0.0" fill="#52796f"/><rect x="315.9" y="73.0" width="14.8" height="287.0" fill="#52796f"/><text transform="translate(323.2,412) rotate(-35)" text-anchor="end" font-family="Arial" font-size="10">2021-01</text><rect x="336.3" y="100.0" width="14.8" height="260.0" fill="#52796f"/><rect x="356.8" y="70.0" width="14.8" height="290.0" fill="#52796f"/><rect x="377.3" y="81.5" width="14.8" height="278.5" fill="#52796f"/><text transform="translate(384.7,412) rotate(-35)" text-anchor="end" font-family="Arial" font-size="10">2021-04</text><rect x="397.8" y="77.0" width="14.8" height="283.0" fill="#52796f"/><rect x="418.3" y="360.0" width="14.8" height="0.0" fill="#52796f"/><rect x="438.8" y="360.0" width="14.8" height="0.0" fill="#52796f"/><text transform="translate(446.2,412) rotate(-35)" text-anchor="end" font-family="Arial" font-size="10">2021-07</text><rect x="459.3" y="360.0" width="14.8" height="0.0" fill="#52796f"/><rect x="479.8" y="360.0" width="14.8" height="0.0" fill="#52796f"/><rect x="500.2" y="360.0" width="14.8" height="0.0" fill="#52796f"/><text transform="translate(507.6,412) rotate(-35)" text-anchor="end" font-family="Arial" font-size="10">2021-10</text><rect x="520.7" y="360.0" width="14.8" height="0.0" fill="#52796f"/><rect x="541.2" y="360.0" width="14.8" height="0.0" fill="#52796f"/><rect x="561.7" y="100.5" width="14.8" height="259.5" fill="#52796f"/><text transform="translate(569.1,412) rotate(-35)" text-anchor="end" font-family="Arial" font-size="10">2022-01</text><rect x="582.2" y="100.0" width="14.8" height="260.0" fill="#52796f"/><rect x="602.7" y="76.0" width="14.8" height="284.0" fill="#52796f"/><rect x="623.2" y="85.0" width="14.8" height="275.0" fill="#52796f"/><text transform="translate(630.5,412) rotate(-35)" text-anchor="end" font-family="Arial" font-size="10">2022-04</text><rect x="643.7" y="117.5" width="14.8" height="242.5" fill="#52796f"/><rect x="664.1" y="360.0" width="14.8" height="0.0" fill="#52796f"/><rect x="684.6" y="360.0" width="14.8" height="0.0" fill="#52796f"/><text transform="translate(692.0,412) rotate(-35)" text-anchor="end" font-family="Arial" font-size="10">2022-07</text><rect x="705.1" y="360.0" width="14.8" height="0.0" fill="#52796f"/><rect x="725.6" y="360.0" width="14.8" height="0.0" fill="#52796f"/><rect x="746.1" y="360.0" width="14.8" height="0.0" fill="#52796f"/><text transform="translate(753.5,412) rotate(-35)" text-anchor="end" font-family="Arial" font-size="10">2022-10</text><rect x="766.6" y="360.0" width="14.8" height="0.0" fill="#52796f"/><rect x="787.1" y="360.0" width="14.8" height="0.0" fill="#52796f"/><rect x="807.6" y="76.0" width="14.8" height="284.0" fill="#52796f"/><text transform="translate(814.9,412) rotate(-35)" text-anchor="end" font-family="Arial" font-size="10">2023-01</text><rect x="828.0" y="100.0" width="14.8" height="260.0" fill="#52796f"/><rect x="848.5" y="76.0" width="14.8" height="284.0" fill="#52796f"/><rect x="869.0" y="84.0" width="14.8" height="276.0" fill="#52796f"/><text transform="translate(876.4,412) rotate(-35)" text-anchor="end" font-family="Arial" font-size="10">2023-04</text><rect x="889.5" y="77.0" width="14.8" height="283.0" fill="#52796f"/>
</svg>
