<svg xmlns="http://www.w3.org/2000/svg" width="980" height="430" viewBox="0 0 980 430">
<rect width="100%" height="100%" fill="white"/>
<text x="70" y="30" font-family="Arial" font-size="18" font-weight="700">Salinity Observation Coverage by Station (%)</text>
<line x1="70" y1="360" x2="910" y2="360" stroke="#888"/>
<line x1="70" y1="70" x2="70" y2="360" stroke="#888"/>
<text x="70" y="56" font-family="Arial" font-size="11">43.5%</text>
<rect x="70.0" y="70.0" width="27.5" height="290.0" fill="#52796f"/><text transform="translate(83.7,412) rotate(-35)" text-anchor="end" font-family="Arial" font-size="10">XUAN_KHANH</text><rect x="108.2" y="70.0" width="27.5" height="290.0" fill="#52796f"/><rect x="146.4" y="70.0" width="27.5" height="290.0" fill="#52796f"/><text transform="translate(160.1,412) rotate(-35)" text-anchor="end" font-family="Arial" font-size="10">TRA_KHA</text><rect x="184.5" y="70.0" width="27.5" height="290.0" fill="#52796f"/><rect x="222.7" y="70.0" width="27.5" height="290.0" fill="#52796f"/><text transform="translate(236.5,412) rotate(-35)" text-anchor="end" font-family="Arial" font-size="10">TAN_AN</text><rect x="260.9" y="70.0" width="27.5" height="290.0" fill="#52796f"/><rect x="299.1" y="70.0" width="27.5" height="290.0" fill="#52796f"/><text transform="translate(312.8,412) rotate(-35)" text-anchor="end" font-family="Arial" font-size="10">HUNG_MY</text><rect x="337.3" y="70.0" width="27.5" height="290.0" fill="#52796f"/><rect x="375.5" y="70.0" width="27.5" height="290.0" fill="#52796f"/><text transform="translate(389.2,412) rotate(-35)" text-anchor="end" font-family="Arial" font-size="10">TRA_VINH</text><rect x="413.6" y="70.5" width="27.5" height="289.5" fill="#52796f"/><rect x="451.8" y="70.5" width="27.5" height="289.5" fill="#52796f"/><text transform="translate(465.6,412) rotate(-35)" text-anchor="end" font-family="Arial" font-size="10">CAU_NOI</text><rect x="490.0" y="71.1" width="27.5" height="288.9" fill="#52796f"/><rect x="528.2" y="78.0" width="27.5" height="282.0" fill="#52796f"/><text transform="translate(541.9,412) rotate(-35)" text-anchor="end" font-family="Arial" font-size="10">TUYEN_NHON</text><rect x="566.4" y="81.7" width="27.5" height="278.3" fill="#52796f"/><rect x="604.5" y="83.3" width="27.5" height="276.7" fill="#52796f"/><text transform="translate(618.3,412) rotate(-35)" text-anchor="end" font-family="Arial" font-size="10">XEO_RO</text><rect x="642.7" y="115.4" width="27.5" height="244.6" fill="#52796f"/><rect x="680.9" y="218.5" width="27.5" height="141.5" fill="#52796f"/><text transform="translate(694.7,412) rotate(-35)" text-anchor="end" font-family="Arial" font-size="10">SON_DOC</text><rect x="719.1" y="218.5" width="27.5" height="141.5" fill="#52796f"/><rect x="757.3" y="219.0" width="27.5" height="141.0" fill="#52796f"/><text transform="translate(771.0,412) rotate(-35)" text-anchor="end" font-family="Arial" font-size="10">AN_THUAN</text><rect x="795.5" y="219.0" width="27.5" height="141.0" fill="#52796f"/><rect x="833.6" y="219.5" width="27.5" height="140.5" fill="#52796f"/><text transform="translate(847.4,412) rotate(-35)" text-anchor="end" font-family="Arial" font-size="10">LOC_THUAN</text><rect x="871.8" y="220.1" width="27.5" height="139.9" fill="#52796f"/>
</svg>
