<svg xmlns="http://www.w3.org/2000/svg" width="980" height="430" viewBox="0 0 980 430">
<rect width="100%" height="100%" fill="white"/>
<text x="70" y="30" font-family="Arial" font-size="18" font-weight="700">Top Absolute Pearson Correlations with Salinity Max</text>
<line x1="70" y1="360" x2="910" y2="360" stroke="#888"/>
<line x1="70" y1="70" x2="70" y2="360" stroke="#888"/>
<text x="70" y="56" font-family="Arial" font-size="11">0.5</text>
<rect x="70.0" y="272.4" width="30.2" height="87.6" fill="#52796f"/><text transform="translate(85.1,412) rotate(-35)" text-anchor="end" font-family="Arial" font-size="10">s2_R_2_mean</text><rect x="112.0" y="269.2" width="30.2" height="90.8" fill="#52796f"/><rect x="154.0" y="268.9" width="30.2" height="91.1" fill="#52796f"/><text transform="translate(169.1,412) rotate(-35)" text-anchor="end" font-family="Arial" font-size="10">precipitation_mm</text><rect x="196.0" y="268.2" width="30.2" height="91.8" fill="#52796f"/><rect x="238.0" y="262.2" width="30.2" height="97.8" fill="#52796f"/><text transform="translate(253.1,412) rotate(-35)" text-anchor="end" font-family="Arial" font-size="10">s2_SWIR2_stdDev</text><rect x="280.0" y="262.2" width="30.2" height="97.8" fill="#52796f"/><rect x="322.0" y="257.6" width="30.2" height="102.4" fill="#52796f"/><text transform="translate(337.1,412) rotate(-35)" text-anchor="end" font-family="Arial" font-size="10">s2_R_4_mean</text><rect x="364.0" y="253.1" width="30.2" height="106.9" fill="#52796f"/><rect x="406.0" y="252.2" width="30.2" height="107.8" fill="#52796f"/><text transform="translate(421.1,412) rotate(-35)" text-anchor="end" font-family="Arial" font-size="10">s2_BGRratio_mean</text><rect x="448.0" y="240.4" width="30.2" height="119.6" fill="#52796f"/><rect x="490.0" y="232.9" width="30.2" height="127.1" fill="#52796f"/><text transform="translate(505.1,412) rotate(-35)" text-anchor="end" font-family="Arial" font-size="10">s2_SWIR2_mean</text><rect x="532.0" y="232.9" width="30.2" height="127.1" fill="#52796f"/><rect x="574.0" y="231.8" width="30.2" height="128.2" fill="#52796f"/><text transform="translate(589.1,412) rotate(-35)" text-anchor="end" font-family="Arial" font-size="10">s2_R_1_mean</text><rect x="616.0" y="231.4" width="30.2" height="128.6" fill="#52796f"/><rect x="658.0" y="229.2" width="30.2" height="130.8" fill="#52796f"/><text transform="translate(673.1,412) rotate(-35)" text-anchor="end" font-family="Arial" font-size="10">s2_SWIR1_mean</text><rect x="700.0" y="229.2" width="30.2" height="130.8" fill="#52796f"/><rect x="742.0" y="223.4" width="30.2" height="136.6" fill="#52796f"/><text transform="translate(757.1,412) rotate(-35)" text-anchor="end" font-family="Arial" font-size="10">temperature_2m_min_c</text><rect x="784.0" y="132.1" width="30.2" height="227.9" fill="#52796f"/><rect x="826.0" y="130.6" width="30.2" height="229.4" fill="#52796f"/><text transform="translate(841.1,412) rotate(-35)" text-anchor="end" font-family="Arial" font-size="10">soil_moisture_layer1_vol</text><rect x="868.0" y="70.0" width="30.2" height="290.0" fill="#52796f"/>
</svg>
